<svg width="18" height="18" viewBox="0 0 18 18" fill="none" xmlns="http://www.w3.org/2000/svg">
<path d="M17 8.55556H15.2044C14.9911 5.48 12.52 3.00889 9.44444 2.79556V1H8.55556V2.79556C5.48 3.00889 3.00889 5.48 2.79556 8.55556H1V9.44444H2.79556C3.00889 12.52 5.48 14.9911 8.55556 15.2044V17H9.44444V15.2044C12.52 14.9911 14.9911 12.52 15.2044 9.44444H17V8.55556ZM9.44444 14.3156V11.6667H8.55556V14.3156C5.96 14.1022 3.89778 12.04 3.68444 9.44444H6.33333V8.55556H3.68444C3.89778 5.96 5.96 3.89778 8.55556 3.68444V6.33333H9.44444V3.68444C12.04 3.89778 14.1022 5.96 14.3156 8.55556H11.6667V9.44444H14.3156C14.1022 12.04 12.04 14.1022 9.44444 14.3156Z" fill="white" stroke="white"/>
</svg>
