<svg version="1.2" xmlns="http://www.w3.org/2000/svg" viewBox="0 0 15 20" width="15" height="20">
	<title>hegrenade-svg</title>
	<style>
		.s0 { fill: #ffffff } 
	</style>
	<g id="Layer">
		<g id="Layer">
			<path id="Layer" fill-rule="evenodd" class="s0" d="m9.3 3.6c0.3 0 0.2-0.1 2.5 5l1.7 3.8 0.2 3.5c0.2 3.5 0.1 4.2-0.6 4.2-0.1 0-0.1-0.2 0.1-0.4 0.2-0.2 0.2-0.9 0.1-2.3l-0.2-2-0.3 1c-0.9 2.6-2.7 3.7-5.7 3.7-1.5 0-2-0.1-3.1-0.6-1.9-0.9-2.8-2.5-2.8-5.1 0-2.3 1.2-3.7 3.3-4 0.5-0.1 1-0.3 1-0.4 0.1-0.2 0.1-1.2 0-2.3-0.2-1.8-0.2-2-0.7-2.1-0.7-0.1-0.8-0.4-0.4-1 0.3-0.3 0.7-0.4 2.4-0.5 1.2 0 2.2-0.2 2.2-0.3 0-0.1 0.1-0.2 0.3-0.2zm-0.7 5.8c0 0.7 0.1 0.8 1.4 1 1.4 0.4 2.2 0.9 2.7 2 0.1 0.4 0.3 0.5 0.3 0.3 0-0.2-0.5-1.1-1.1-2.1l-1-1.8h-1.2l-1.2-0.1z"/>
		</g>
	</g>
</svg>