<svg version="1.2" xmlns="http://www.w3.org/2000/svg" viewBox="0 0 100 130" width="100" height="130">
	<title>incgrenade-svg</title>
	<style>
		.s0 { fill: #ffffff } 
	</style>
	<path id="Layer" fill-rule="evenodd" class="s0" d="m51 37.1c8.2-0.2 10.1 0.1 10.6 1.4 0.3 0.8 1.2 1.5 2 1.5 0.8 0 1.4 0.3 1.4 0.8 0 0.4 1.3 1.3 2.9 2 4.3 1.9 6.2 8.8 3.3 12.6-0.5 0.6-0.5 12.2 0 27.1 0.5 14.3 0.6 26.5 0.4 27.2-1 2.5-2.2 1.2-1.9-2 0.2-1.7 0-13.1-0.5-25.2l-0.9-22-0.1 23.7-0.2 23.7-3.7 0.8c-4.6 1-27.1 1-29.6 0-1.6-0.6-1.7-2.8-1.7-25.7v-25h4.3c2.4 0 4.8-0.5 5.5-1.2 0.7-0.7 1.2-3.9 1.2-7.2 0-4.7-0.4-6.4-2.1-8.2-1.2-1.2-1.8-2.7-1.5-3.2 0.3-0.5 5.1-1 10.6-1.1zm14 8.3c0 0.7 0.7 3.1 1.6 5.2 1.5 3.6 1.7 3.7 3 1.9 1.8-2.4 1.8-3.5-0.2-6.3-1.7-2.4-4.4-3-4.4-0.8zm-7.8 8.8c0.3 2.4 4.3 3.6 7.6 2.3 1.5-0.5 1.3-0.9-0.8-2.5-1.4-1.1-3.5-2-4.8-2-1.9 0-2.3 0.5-2 2.2zm-10.4 14.2c-9.4 8.7-11.7 25.8-4.3 33.2 3.3 3.3 4.6 3 2.8-0.7-1.7-3.4-1.2-8.2 1.2-11.3 1.5-1.9 1.5-1.9 1.5 0.1 0 1.2 1.8 4.5 4 7.4 2.1 2.9 3.7 5.6 3.4 6.1-0.3 0.4 0.2 0.8 1.1 0.8 0.8 0 2.4-1.5 3.6-3.3 3.3-5.2 2.3-11.9-3.1-20.3-2.4-3.8-4.9-8.8-5.5-11.1l-1.1-4.2zm-13.9 44.9l7.3 0.9c4 0.4 8.2 1 9.3 1.2 1 0.3 3.9 0.1 6.5-0.4 2.5-0.5 6.2-1.2 8.3-1.5l3.8-0.6-0.3 7.3-0.3 7.3h-34l-0.3-7.1z"/>
</svg>