<svg version="1.2" xmlns="http://www.w3.org/2000/svg" viewBox="0 0 100 130" width="100" height="130">
	<title>inferno-svg</title>
	<style>
		.s0 { fill: #ffffff } 
	</style>
	<path id="Layer" fill-rule="evenodd" class="s0" d="m78.2 39.8c2.8 3.4 3.8 7.4 3.8 15.8 0 8.5-2.3 18-5.6 23.2-2 3.1-6.2 3-7.4-0.4-1.8-4.5-1.1-8.4 3-17 4-8.4 5.3-16.5 3-17.9-0.5-0.3-1 0.4-1 1.5 0 1.2-0.7 3.4-1.5 4.8-0.8 1.5-2.9 6.5-4.5 11.1-2.8 7.8-3 8.9-1.9 13l1.1 4.6-12.2 25.3c-6.8 13.8-12.8 25.2-13.4 25.2-2.5-0.1-20.1-9.7-20.4-11.1-0.1-0.8 5.1-12.6 11.6-26.1l12-24.5 4.4-1.7c3.8-1.5 5.1-2.9 10.1-10.7 3.1-4.9 5.7-9.6 5.7-10.5 0-0.8 0.8-1.7 1.7-2.1 1-0.3 2.6-1.4 3.6-2.5 2.2-2.3 6-2.3 7.9 0z"/>
</svg>