<svg version="1.2" xmlns="http://www.w3.org/2000/svg" viewBox="0 0 11 25" width="11" height="25">
	<title>smokegrenade-svg</title>
	<style>
		.s0 { mix-blend-mode: lighten;fill: #ffffff } 
	</style>
	<g id="Layer">
		<g id="Layer">
			<path id="Layer" fill-rule="evenodd" class="s0" d="m5 6.2c1.7 0 2.1 0 2.2 0.3 0.1 0.2 0.2 0.3 0.4 0.3 0.2 0 0.3 0.1 0.3 0.2 0 0.1 0.3 0.2 0.6 0.4 0.9 0.4 1.2 1.8 0.6 2.5-0.1 0.2-0.1 2.5 0 5.6 0.1 2.9 0.2 5.4 0.1 5.5 0 0.2-0.2 0.3-0.3 0.3-0.1 0-0.2-0.1-0.1-0.2 0.1-0.1 0-2.4 0-5.1-0.1-2.8-0.2-4.7-0.3-4.3 0 0.5-0.2 0.7-0.6 0.9-0.9 0.3-4.3 0.4-5.4 0.1l-1-0.3-0.2-1.9h0.9c0.5 0 1-0.1 1.2-0.3 0.1-0.1 0.2-0.7 0.2-1.4 0-1-0.1-1.3-0.4-1.7-0.3-0.3-0.4-0.5-0.3-0.7 0-0.1 1-0.2 2.1-0.2zm2.9 1.7c0 0.2 0.1 0.6 0.3 1.1 0.3 0.7 0.4 0.7 0.6 0.4 0.4-0.5 0.4-0.8 0-1.3-0.4-0.5-0.9-0.6-0.9-0.2zm-1.6 1.8c0.1 0.5 0.9 0.7 1.5 0.5 0.3-0.1 0.3-0.2-0.1-0.5-0.3-0.3-0.7-0.4-1-0.4-0.4 0-0.5 0.1-0.4 0.4zm2.1 3.9c0.1 0 0.1 1.5 0.1 3.3v3.4l-0.6 0.2c-0.7 0.3-5.3 0.3-6 0l-0.5-0.2v-6.6l0.5 0.1c1.4 0.3 4.1 0.4 5.3 0.1 0.6-0.2 1.2-0.3 1.2-0.3zm0 8l0.1 1.3c0 0.7 0 1.4-0.1 1.6-0.1 0.2-0.8 0.3-3.5 0.2h-3.4l-0.1-1.6-0.1-1.5 0.6 0.2c1.3 0.3 4.1 0.3 5.3 0.1z"/>
		</g>
	</g>
</svg>